<svg xmlns="http://www.w3.org/2000/svg" viewBox="0 0 1455.53 1388.4" class="w-24 h-24"><defs><style>.cls-1,.cls-7{font-size:37.72px;font-family:Trap-Medium, Trap;font-weight:500;}.cls-1,.cls-14,.cls-19,.cls-7{fill:#f0e918;}.cls-1{letter-spacing:0.19em;}.cls-2,.cls-7{letter-spacing:0.2em;}.cls-3{letter-spacing:0.21em;}.cls-4{letter-spacing:0.2em;}.cls-5{letter-spacing:0.15em;}.cls-6{letter-spacing:0.18em;}.cls-8{letter-spacing:0.17em;}.cls-9{letter-spacing:0.15em;}.cls-10{letter-spacing:0.18em;}.cls-11{letter-spacing:0.2em;}.cls-12{letter-spacing:0.15em;}.cls-13{letter-spacing:0.2em;}.cls-14{font-size:82.49px;font-family:HansonBold, Hanson;letter-spacing:0.19em;}.cls-15{letter-spacing:0.21em;}.cls-16{letter-spacing:0.18em;}.cls-17{letter-spacing:0.19em;}.cls-18{letter-spacing:0.2em;}</style></defs><title>Asset 6</title><g id="Layer_2" data-name="Layer 2"><g id="Layer_1-2" data-name="Layer 1"><text class="cls-1" transform="translate(1014.73 1292.51)">Y<tspan class="cls-2" x="29.99" y="0">OUR </tspan><tspan class="cls-3" x="149.24" y="0">D</tspan><tspan class="cls-4" x="184.21" y="0">I</tspan><tspan class="cls-2" x="201.33" y="0">G</tspan><tspan class="cls-5" x="237.29" y="0">I</tspan><tspan class="cls-6" x="252.75" y="0">T</tspan><tspan class="cls-2" x="281.01" y="0">AL</tspan></text><text class="cls-7" transform="translate(914.84 1334.82)">T<tspan class="cls-8" x="28.97" y="0">R</tspan><tspan x="59.68" y="0">ANS</tspan><tspan class="cls-9" x="159.35" y="0">F</tspan><tspan x="186.88" y="0">OR</tspan><tspan class="cls-8" x="254.64" y="0">M</tspan><tspan class="cls-10" x="296.78" y="0">A</tspan><tspan class="cls-11" x="327.82" y="0">T</tspan><tspan class="cls-12" x="356.79" y="0">I</tspan><tspan class="cls-13" x="372.26" y="0">ON</tspan></text><text class="cls-7" transform="translate(1109.86 1378.96)">SOLUT<tspan class="cls-12" x="160.52" y="0">I</tspan><tspan x="175.98" y="0">ON</tspan></text><text class="cls-14" transform="translate(1003.18 1240.08)">S<tspan class="cls-15" x="94.95" y="0">I</tspan><tspan class="cls-16" x="137.42" y="0">R</tspan><tspan class="cls-17" x="225.28" y="0">I</tspan><tspan class="cls-18" x="265.94" y="0">O</tspan></text><path class="cls-19" d="M681.5,1158.78l93-60a.78.78,0,0,0-.1-1.37L296.48,885.13a.8.8,0,0,1-.46-.7l-6.46-419.28a.77.77,0,0,1,.35-.66L359,419.56a.78.78,0,0,1,1.21.65l-.39,422.07a.78.78,0,0,0,1.2.66l1.59-1,32.54-21,57-36.8a.77.77,0,0,0,.36-.63l14.9-491.95a.49.49,0,0,0,0-.12l2.17-49.28c-.07-.57,0,0-8.9,6.43L242.64,390.8,147,451.1a.77.77,0,0,0-.36.71l31,509a.79.79,0,0,0,.48.68l394.6,158.73a.78.78,0,0,1,.14,1.38l-52.53,34.13a.78.78,0,0,1-.71.07L167,1013.08c-50.35-20.39-125.1,6.08-167,59.1H0l444,179.73c35.94,14.55,84.3,5.22,124.27-20.59l.28.43L677,1161.3l0,0,4.45-2.47Z"/><path class="cls-19" d="M374.55,864.85l470.69,187.8a.77.77,0,0,0,.72-.07l95.34-63.36a.78.78,0,0,0-.15-1.38l-475.33-183a.76.76,0,0,0-.7.07l-90.71,58.57A.78.78,0,0,0,374.55,864.85Z"/><path class="cls-19" d="M788.36,566.62l14.42-454.23a.78.78,0,0,1,1.08-.7l380.4,158.8a.77.77,0,0,1,.12,1.37l-148.65,96a70.42,70.42,0,0,0-21,97.35h0a11.65,11.65,0,0,0,16.12,3.47L1219.35,347a.78.78,0,0,1,1.2.68l-13.84,387.08a.79.79,0,0,1-1,.71L802,587.74a.77.77,0,0,0-.69.08l-87.51,56.5a.78.78,0,0,0,.14,1.38l470.67,187.82a.77.77,0,0,0,.72-.07l92.91-60,1.35-.87,47.08-30.4a.79.79,0,0,0,.36-.66l-1.34-462.79a.78.78,0,0,1,.36-.65l92.27-59.58a81.31,81.31,0,0,0,24.2-112.4h0a.78.78,0,0,0-1.08-.23l-151.26,97.67a.8.8,0,0,1-.75,0L846.17.07a.8.8,0,0,0-.75,0L728.26,75.78l-1.35.87-26.65,17.2a.8.8,0,0,0-.36.66l-1,528.86a.79.79,0,0,0,1.21.66L788,567.25A.75.75,0,0,0,788.36,566.62Z"/><path class="cls-19" d="M1113,878.71,623.31,674.12a.79.79,0,0,1-.48-.73l7.59-533.17a.78.78,0,0,0-1.2-.66l-95.85,62.06a.78.78,0,0,0-.36.63L517,741.75a.77.77,0,0,0,.48.74l498,200.3a.78.78,0,0,0,.71-.07l97-62.63A.79.79,0,0,0,1113,878.71Z"/><ellipse class="cls-19" cx="941.59" cy="273.47" rx="69.68" ry="65.17" transform="translate(3.06 557.27) rotate(-33.02)"/></g></g></svg>